# xmcd CD database file generated by Grip 3.2.0
# 
# Track frame offsets:
#       150
#       18666
#       30618
#       45147
#       51024
#       68884
#       77402
#       86119
#       95577
#       119689
#       141660
#       158611
# 
# Disc length: 2355 seconds
# 
# Revision: 2
# Processed by: cddbd v1.5.2PL0 Copyright (c) Steve Scherf et al.
# Submitted via: Grip 3.2.0
# 
DISCID=9a09310c
DTITLE=George Winston - December - Piano Solos
DYEAR=1900
DGENRE=
TTITLE0=Thanksgiving
TTITLE1=Juses, Jesus, Rest Your Head
TTITLE2=Joy
TTITLE3=Prelude
TTITLE4=Carol of the Bells
TTITLE5=Night, Part One: Snow
TTITLE6=Night, Part Two: Midnight
TTITLE7=Night, Part Three: Minstrels
TTITLE8=Variations On The Kanon By Johann Pachelbel
TTITLE9=The Holly And The Ivy
TTITLE10=Some Children See Him
TTITLE11=Peace
EXTD=
EXTT0=
EXTT1=
EXTT2=
EXTT3=
EXTT4=
EXTT5=
EXTT6=
EXTT7=
EXTT8=
EXTT9=
EXTT10=
EXTT11=
PLAYORDER=
